<svg version="1.2" xmlns="http://www.w3.org/2000/svg" viewBox="0 0 400 400" width="400" height="400">
	<style>
		.s0 { fill: #18bcf2 } 
	</style>
	<path class="s0" d="m309.39 186.15l-98.78-98.78c-5.83-5.83-15.38-5.83-21.21 0l-98.79 98.78c-5.83 5.83-10.61 17.36-10.61 25.61v90c0 8.25 6.75 15 15 15h92.27l-40.63-40.63c-2.09 0.72-4.32 1.13-6.64 1.13-11.3 0-20.5-9.2-20.5-20.5 0-11.3 9.2-20.5 20.5-20.5 11.3 0 20.5 9.2 20.5 20.5 0 2.33-0.41 4.56-1.13 6.65l31.63 31.63v-115.88c-6.8-3.34-11.5-10.32-11.5-18.39 0-11.3 9.2-20.5 20.5-20.5 11.3 0 20.5 9.2 20.5 20.5 0 8.07-4.7 15.05-11.5 18.39v81.27l31.46-31.46c-0.62-1.96-0.96-4.04-0.96-6.2 0-11.3 9.2-20.5 20.5-20.5 11.3 0 20.5 9.2 20.5 20.5 0 11.3-9.2 20.5-20.5 20.5-2.5 0-4.88-0.47-7.09-1.29l-43.91 43.91v30.88h96c8.25 0 15-6.75 15-15v-90c0-8.25-4.77-19.77-10.61-25.61z"/>
</svg>